<?xml version="1.0" encoding="utf-8"?>
<!-- Generator: Adobe Illustrator 21.0.2, SVG Export Plug-In . SVG Version: 6.00 Build 0)  -->
<svg version="1.1" id="Lager_1" xmlns:sketch="http://www.bohemiancoding.com/sketch/ns"
	 xmlns="http://www.w3.org/2000/svg" xmlns:xlink="http://www.w3.org/1999/xlink" x="0px" y="0px" viewBox="0 0 25 25"
	 style="enable-background:new 0 0 25 25;" xml:space="preserve">
<style type="text/css">
	.st0{fill:#FFFFFF;}
</style>
<title></title>
<desc></desc>
<g id="TabBar-Icons">
	<g id="Hamburger-Round">
		<path id="Hamburger" class="st0" d="M0,4c0-1.1,0.9-2,2-2h21c1.1,0,2,0.9,2,2c0,1.1-0.9,2-2,2H2C0.9,6,0,5.1,0,4L0,4z M0,12
			c0-1.1,0.9-2,2-2h21c1.1,0,2,0.9,2,2c0,1.1-0.9,2-2,2H2C0.9,14,0,13.1,0,12L0,12z M0,20c0-1.1,0.9-2,2-2h21c1.1,0,2,0.9,2,2
			c0,1.1-0.9,2-2,2H2C0.9,22,0,21.1,0,20L0,20z"/>
	</g>
</g>
</svg>
