<?xml version="1.0" encoding="utf-8"?>
<!-- Generator: Adobe Illustrator 21.0.0, SVG Export Plug-In . SVG Version: 6.00 Build 0)  -->
<svg version="1.1" id="Слой_1" xmlns="http://www.w3.org/2000/svg" xmlns:xlink="http://www.w3.org/1999/xlink" x="0px" y="0px"
	 viewBox="0 0 40 40" style="enable-background:new 0 0 40 40;" xml:space="preserve">
<style type="text/css">
	.st0{fill:#FFFFFF;}
</style>
<g>
	<path class="st0" d="M4.9,40H3.5c-2,0-3.7-1.6-3.7-3.7V3.7c0-2,1.6-3.7,3.7-3.7h10.7c2,0,3.7,1.6,3.7,3.7v1.7
		c0,0.9,0.7,1.7,1.7,1.7h16.7c2,0,3.7,1.6,3.7,3.7V12c0,0.6-0.4,1-1,1s-1-0.4-1-1v-1.2c0-0.9-0.7-1.7-1.7-1.7H19.5
		c-2,0-3.7-1.6-3.7-3.7V3.7c0-0.9-0.7-1.7-1.7-1.7H3.5C2.6,2,1.9,2.7,1.9,3.7v32.7c0,0.9,0.7,1.7,1.7,1.7h1.3c0.6,0,1,0.4,1,1
		S5.4,40,4.9,40z"/>
</g>
<g>
	<path class="st0" d="M36.2,40H11.3c-1.9,0-3.5-1.6-3.5-3.5V18.3c0-1.9,1.6-3.5,3.5-3.5h25.1c1.9,0,3.5,1.6,3.5,3.5v18
		C39.9,38.4,38.2,40,36.2,40z M11.3,16.8c-0.8,0-1.5,0.7-1.5,1.5v18.3c0,0.8,0.7,1.5,1.5,1.5h24.9c0.9,0,1.7-0.7,1.7-1.7v-18
		c0-0.8-0.7-1.5-1.5-1.5L11.3,16.8z"/>
</g>
<g>
	<path class="st0" d="M34.4,27.8H23.9c-0.6,0-1-0.4-1-1s0.4-1,1-1h10.5c0.6,0,1,0.4,1,1S34.9,27.8,34.4,27.8z"/>
</g>
<g>
	<path class="st0" d="M34.4,31.8H23.9c-0.6,0-1-0.4-1-1s0.4-1,1-1h10.5c0.6,0,1,0.4,1,1S34.9,31.8,34.4,31.8z"/>
</g>
</svg>
