<?xml version="1.0" encoding="utf-8"?>
<!-- Generator: Adobe Illustrator 21.0.0, SVG Export Plug-In . SVG Version: 6.00 Build 0)  -->
<svg version="1.1" id="Слой_1" xmlns="http://www.w3.org/2000/svg" xmlns:xlink="http://www.w3.org/1999/xlink" x="0px" y="0px"
	 viewBox="0 0 40 40" style="enable-background:new 0 0 40 40;" xml:space="preserve">
<style type="text/css">
	.st0{fill:#FFFFFF;}
</style>
<g>
	<path class="st0" d="M17,26H3c-1.8,0-3.2-1.4-3.2-3.2v-5.1c0-1.8,1.4-3.2,3.2-3.2h14c0.6,0,1,0.4,1,1c0,0.6-0.4,1-1,1H3
		c-0.7,0-1.2,0.5-1.2,1.2v5.1C1.8,23.5,2.3,24,3,24h14c0.6,0,1,0.4,1,1S17.6,26,17,26z"/>
</g>
<g>
	<path class="st0" d="M26.8,26H24c-0.6,0-1-0.4-1-1s0.4-1,1-1h2.8c0.7,0,1.2-0.5,1.2-1.2v-5.1c0-0.7-0.5-1.2-1.2-1.2H24
		c-0.6,0-1-0.4-1-1s0.4-1,1-1h2.8c1.8,0,3.2,1.4,3.2,3.2v5.1C30,24.6,28.6,26,26.8,26z"/>
</g>
<g>
	<path class="st0" d="M26.8,12H3.1c-1.8,0-3.2-1.4-3.2-3.2V3.7c0-1.8,1.4-3.2,3.2-3.2h23.8c1.8,0,3.2,1.4,3.2,3.2v5.1
		C30,10.6,28.6,12,26.8,12z M3.1,2.5C2.4,2.5,1.9,3,1.9,3.7v5.1c0,0.7,0.5,1.2,1.2,1.2h23.8c0.7,0,1.2-0.5,1.2-1.2V3.7
		c0-0.7-0.5-1.2-1.2-1.2H3.1z"/>
</g>
<g>
	<path class="st0" d="M26.8,40H3.1c-1.8,0-3.2-1.4-3.2-3.2v-5.1c0-1.8,1.4-3.2,3.2-3.2h23.8c1.8,0,3.2,1.4,3.2,3.2v5.1
		C30,38.6,28.6,40,26.8,40z M3.1,30.5c-0.7,0-1.2,0.5-1.2,1.2v5.1c0,0.7,0.5,1.2,1.2,1.2h23.8c0.7,0,1.2-0.5,1.2-1.2v-5.1
		c0-0.7-0.5-1.2-1.2-1.2C26.9,30.5,3.1,30.5,3.1,30.5z"/>
</g>
<g>
	<path class="st0" d="M36.8,26h-1.6c-1.8,0-3.2-1.4-3.2-3.2v-5.1c0-1.8,1.4-3.2,3.2-3.2h1.6c1.8,0,3.2,1.4,3.2,3.2v5.1
		C40,24.6,38.6,26,36.8,26z M35.3,16.5c-0.7,0-1.2,0.5-1.2,1.2v5.1c0,0.7,0.5,1.2,1.2,1.2h1.6c0.7,0,1.2-0.5,1.2-1.2v-5.1
		c0-0.7-0.5-1.2-1.2-1.2H35.3z"/>
</g>
<g>
	<path class="st0" d="M36.8,12h-1.6c-1.8,0-3.2-1.4-3.2-3.2V3.7c0-1.8,1.4-3.2,3.2-3.2h1.6c1.8,0,3.2,1.4,3.2,3.2v5.1
		C40,10.6,38.6,12,36.8,12z M35.3,2.5C34.6,2.5,34,3,34,3.7v5.1c0,0.7,0.5,1.2,1.2,1.2h1.6c0.7,0,1.2-0.5,1.2-1.2V3.7
		c0-0.7-0.5-1.2-1.2-1.2H35.3z"/>
</g>
<g>
	<path class="st0" d="M36.8,40h-1.6c-1.8,0-3.2-1.4-3.2-3.2v-5.1c0-1.8,1.4-3.2,3.2-3.2h1.6c1.8,0,3.2,1.4,3.2,3.2v5.1
		C40,38.6,38.6,40,36.8,40z M35.3,30.5c-0.7,0-1.2,0.5-1.2,1.2v5.1c0,0.7,0.5,1.2,1.2,1.2h1.6c0.7,0,1.2-0.5,1.2-1.2v-5.1
		c0-0.7-0.5-1.2-1.2-1.2C36.9,30.5,35.3,30.5,35.3,30.5z"/>
</g>
</svg>
