<?xml version="1.0" encoding="utf-8"?>
<!-- Generator: Adobe Illustrator 21.0.0, SVG Export Plug-In . SVG Version: 6.00 Build 0)  -->
<svg version="1.1" id="Слой_1" xmlns="http://www.w3.org/2000/svg" xmlns:xlink="http://www.w3.org/1999/xlink" x="0px" y="0px"
	 viewBox="0 0 40 40" style="enable-background:new 0 0 40 40;" xml:space="preserve">
<style type="text/css">
	.st0{fill:#FFFFFF;}
</style>
<g>
	<g id="XMLID_1_">
		<g>
			<path class="st0" d="M34.4,34c0.6,0,1,0.4,1,1s-0.4,1-1,1h-6c-0.6,0-1-0.4-1-1s0.4-1,1-1H34.4z"/>
			<path class="st0" d="M32.4,16v-2c0-0.9-0.7-1.6-1.6-1.6h-0.7c-0.5,0-0.9-0.3-1-0.8c-0.9-4.6-3.6-8.1-6.9-9.2l3.4,5.4
				c0.3,0.5,0.2,1.1-0.3,1.4c-0.1,0-0.3,0.1-0.5,0.1c-0.3,0-0.6-0.2-0.8-0.5L19.6,2c-0.8,0-1.6,0.2-2.3,0.5l3.3,5.3
				c0.3,0.5,0.2,1.1-0.3,1.4c-0.1,0-0.3,0.1-0.5,0.1c-0.3,0-0.6-0.2-0.8-0.5l-3.3-5.3C15.1,3.9,14.5,4.4,14,5l1.6,2.8
				c0.3,0.5,0.2,1.1-0.3,1.4c-0.1,0-0.3,0.1-0.5,0.1c-0.3,0-0.6-0.2-0.8-0.5l-1.4-2c-0.8,1.4-1.4,3.1-1.8,4.9
				c-0.1,0.5-0.5,0.8-1,0.8H9.1c-0.9,0-1.6,0.7-1.6,1.6V16c0,0.9,0.7,1.6,1.6,1.6h0.7c0.5,0,0.9,0.3,1,0.8c0.7,3.2,2.2,5.9,4.2,7.6
				l0.1,0.1c1.4,1.2,3.1,1.9,4.9,1.9c4.3,0,8-3.9,9.1-9.6c0.1-0.5,0.5-0.8,1-0.8h0.7C31.7,17.6,32.4,16.9,32.4,16z M37.2,38
				c0.6,0,1-0.4,0.9-1.1c0-2.6-1.6-5-4-5.9l-8.3-3.2c-1.7,1.3-3.7,2.1-5.8,2.1s-4.1-0.7-5.8-2L6,31.1c-2.4,1-4,3.3-4,5.9
				c0,0.6,0.5,1,1,1H37.2z M0,37c0-3.4,2.1-6.4,5.2-7.7l7.3-2.8c-1.6-1.8-2.8-4.2-3.5-6.9c-1.9,0-3.5-1.6-3.5-3.6v-2
				c0-1.9,1.5-3.6,3.5-3.6c0.6-2.3,1.5-4.4,2.8-6c0.1-0.1,0.1-0.1,0.2-0.2C13,3,14.1,2,15.4,1.3C16.8,0.4,18.4,0,20,0h0.2h0.1
				c4.9,0.1,9.2,4.3,10.7,10.5c1.9,0,3.5,1.6,3.5,3.6V16c0,2-1.5,3.6-3.5,3.6c-0.7,2.7-1.9,5-3.5,6.8l7.4,2.9
				c3.2,1.3,5.3,4.3,5.4,7.7c0,1.7-1.4,3-3,3H3C1.3,40,0,38.6,0,37z"/>
		</g>
		<g>
		</g>
	</g>
</g>
</svg>
