<?xml version="1.0" encoding="utf-8"?>
<!-- Generator: Adobe Illustrator 21.0.0, SVG Export Plug-In . SVG Version: 6.00 Build 0)  -->
<svg version="1.1" id="Слой_1" xmlns="http://www.w3.org/2000/svg" xmlns:xlink="http://www.w3.org/1999/xlink" x="0px" y="0px"
	 viewBox="0 0 40 40" style="enable-background:new 0 0 40 40;" xml:space="preserve">
<style type="text/css">
	.st0{fill:#FFFFFF;}
</style>
<g>
	<path class="st0" d="M38.9,11.5c-0.5,0-1,0.4-1,1V29c0,1.3-1,2.3-2.3,2.3H4.2c-1.3,0-2.3-1-2.3-2.3v-1.3h3.8c0.5,0,1-0.4,1-1
		c0-0.5-0.5-1-1-1H1.9v-8h3.8c0.5,0,1-0.4,1-1c0-0.5-0.5-1-1-1H1.9v-8h3.8c0.5,0,1-0.4,1-1c0-0.5-0.5-1-1-1H1.9V4.4
		c0-1.3,1-2.3,2.3-2.3h31.4c1.3,0,2.3,1,2.3,2.3c0,0.6,0.5,1,1,1s1-0.4,1-1c0-2.4-1.9-4.3-4.3-4.3H4.2C1.8,0.1-0.1,2-0.1,4.4V29
		c0,2.4,1.9,4.3,4.3,4.3h1V37c0,1.6,1.3,3,3,3h3.7c1.6,0,3-1.3,3-3v-3.7h10V37c0,1.6,1.3,3,3,3h3.7c1.6,0,3-1.3,3-3v-3.7h1
		c2.4,0,4.3-1.9,4.3-4.3V12.5C39.9,12,39.4,11.5,38.9,11.5z M12.9,37c0,0.5-0.4,1-1,1H8.2c-0.5,0-1-0.4-1-1v-3.7h5.7V37z M32.6,37
		c0,0.5-0.4,1-1,1h-3.7c-0.5,0-1-0.4-1-1v-3.7h5.7V37z"/>
</g>
<g>
	<path class="st0" d="M19.9,23.7c-3.9,0-7-3.1-7-7s3.1-7,7-7c0.6,0,1,0.4,1,1s-0.4,1-1,1c-2.8,0-5,2.2-5,5s2.2,5,5,5s5-2.2,5-5
		c0-0.6,0.4-1,1-1s1,0.4,1,1C26.9,20.6,23.7,23.7,19.9,23.7z"/>
</g>
<g>
	<path class="st0" d="M19.9,17.7c-0.3,0-0.5-0.1-0.7-0.3c-0.4-0.4-0.4-1,0-1.4l4.2-4.2c0.4-0.4,1-0.4,1.4,0s0.4,1,0,1.4l-4.2,4.2
		C20.4,17.6,20.1,17.7,19.9,17.7z"/>
</g>
</svg>
